<svg width="1916" height="1916" xmlns="http://www.w3.org/2000/svg" xmlns:xlink="http://www.w3.org/1999/xlink" xml:space="preserve" overflow="hidden"><defs><linearGradient x1="602.577" y1="2020.71" x2="2514.56" y2="108.697" gradientUnits="userSpaceOnUse" spreadMethod="reflect" id="fill0"><stop offset="0" stop-color="#96E1AA" stop-opacity="1"/><stop offset="0.5" stop-color="#4BBBC1" stop-opacity="1"/><stop offset="1" stop-color="#0095D9" stop-opacity="1"/></linearGradient></defs><g transform="translate(-600 -105)"><g><path d="M2514.57 1064.7C2514.57 1592.69 2086.55 2020.7 1558.57 2020.7 1030.59 2020.7 602.57 1592.69 602.57 1064.7 602.57 536.72 1030.59 108.704 1558.57 108.704 2086.55 108.704 2514.57 536.72 2514.57 1064.7Z" fill="url(#fill0)" fill-rule="evenodd"/><path d="M910.915 1765.7 910.915 1750.39C910.915 1503.86 1111.02 1303.71 1357.49 1303.71L1763.34 1303.71C2009.81 1303.71 2209.92 1503.86 2209.92 1750.39L2209.92 1765.7C2039.37 1923.94 1811.1 2020.71 1560.42 2020.71 1309.72 2020.71 1081.46 1923.94 910.915 1765.7Z" fill="#FFFFFF" fill-rule="evenodd" fill-opacity="1"/><path d="M1962.57 841.678C1962.57 1064.8 1781.69 1245.68 1558.57 1245.68 1335.45 1245.68 1154.57 1064.8 1154.57 841.678 1154.57 618.555 1335.45 437.678 1558.57 437.678 1781.69 437.678 1962.57 618.555 1962.57 841.678Z" fill="#FFFFFF" fill-rule="evenodd" fill-opacity="1"/></g></g></svg>